<svg xmlns="http://www.w3.org/2000/svg" xmlns:xlink="http://www.w3.org/1999/xlink" width="24" height="24" preserveAspectRatio="xMidYMid meet" viewBox="0 0 24 24" style="-ms-transform: rotate(360deg); -webkit-transform: rotate(360deg); transform: rotate(360deg);"><g fill="none"><path d="M9 5a1 1 0 1 0 0 2a1 1 0 0 0 0-2zM6.17 5a3.001 3.001 0 0 1 5.66 0H19a1 1 0 1 1 0 2h-7.17a3.001 3.001 0 0 1-5.66 0H5a1 1 0 0 1 0-2h1.17zM15 11a1 1 0 1 0 0 2a1 1 0 0 0 0-2zm-2.83 0a3.001 3.001 0 0 1 5.66 0H19a1 1 0 1 1 0 2h-1.17a3.001 3.001 0 0 1-5.66 0H5a1 1 0 1 1 0-2h7.17zM9 17a1 1 0 1 0 0 2a1 1 0 0 0 0-2zm-2.83 0a3.001 3.001 0 0 1 5.66 0H19a1 1 0 1 1 0 2h-7.17a3.001 3.001 0 0 1-5.66 0H5a1 1 0 1 1 0-2h1.17z" fill="#626262"/></g><rect x="0" y="0" width="24" height="24" fill="rgba(0, 0, 0, 0)" /></svg>